<?xml version="1.0" encoding="UTF-8"?>
<!DOCTYPE svg PUBLIC "-//W3C//DTD SVG 1.1//EN" "http://www.w3.org/Graphics/SVG/1.1/DTD/svg11.dtd">
<!-- Creator: CorelDRAW X8 -->
<svg xmlns="http://www.w3.org/2000/svg" xml:space="preserve" width="50mm" height="50mm" version="1.1" style="shape-rendering:geometricPrecision; text-rendering:geometricPrecision; image-rendering:optimizeQuality; fill-rule:evenodd; clip-rule:evenodd"
viewBox="0 0 5000 5000"
 xmlns:xlink="http://www.w3.org/1999/xlink">
 <defs>
  <style type="text/css">
   <![CDATA[
    .str0 {stroke:#393185;stroke-width:7.62}
    .fil2 {fill:none}
    .fil1 {fill:#393185}
    .fil0 {fill:#393185;fill-rule:nonzero}
   ]]>
  </style>
   <clipPath id="id0">
    <path d="M2649 1502c-5,47 41,110 70,141 30,33 35,60 38,88 -9,2 -19,4 -28,6l-10 2 -9 6c-27,16 -44,35 -51,55 -10,24 -6,48 9,73l0 0c9,14 22,28 40,41 16,11 36,22 60,34l6 3 7 2c13,3 28,4 45,4 34,185 -80,272 -108,354 -19,54 -22,83 -116,111 -51,15 -254,20 -309,-2 -118,-46 -107,42 -118,72 -31,86 -101,59 -130,146 -37,113 -107,128 -231,144 -27,-5 -32,-6 -51,-14 -49,-4 -151,-27 -190,-18 -1,131 -50,111 -91,205 -14,33 -22,32 -43,56 -32,6 -63,23 -102,36 -252,81 -544,-137 -592,-338 -82,2 -89,-20 -158,-121 -23,-36 -55,-121 -65,-176 -14,-78 2,-164 -10,-229 -27,-156 -18,-183 45,-277 34,-52 -18,-205 196,-419 71,-72 157,-184 238,-224 50,-25 63,3 99,-20 82,-51 78,-87 192,-96 76,-6 14,-31 135,-45 44,-5 55,-19 89,-24 56,-9 54,11 94,16 47,5 43,-21 85,-20 25,1 70,13 105,14 113,4 193,-10 302,39 36,16 50,39 75,46 34,9 58,5 94,18 72,27 90,74 129,94 24,41 49,-6 98,26 34,23 87,87 110,119 22,32 23,49 51,72z"/>
   </clipPath>
 </defs>
 <g id="Camada_x0020_1">
  <metadata id="CorelCorpID_0Corel-Layer"/>
  <path class="fil0" d="M2500 0c690,0 1315,280 1768,732 89,90 172,186 247,288l0 0 26 39c-47,38 -93,55 -154,83 -60,29 -126,53 -197,74 -66,26 -135,50 -208,74 -73,24 -149,47 -228,69 -77,29 -142,62 -199,96 -57,35 -106,72 -150,108l-2 1 -2 1c-121,68 -235,121 -344,162 -107,40 -209,69 -307,90 -10,6 -14,11 -12,13 7,12 29,26 64,43 28,5 88,-4 147,-14 34,-5 67,-10 97,-13l49 -15c60,-19 136,-43 221,-66l0 0 14 -4c58,-15 120,-31 182,-44l37 -8 12 -2c32,-6 64,-12 96,-16 33,-5 65,-9 96,-11l2 -1 2 1c71,4 129,13 168,27 49,19 72,47 58,88 -7,41 -18,82 -33,121 -15,39 -35,77 -60,113 -8,28 -15,57 -16,87 -1,29 3,60 14,93 12,15 23,28 35,30 11,2 27,-7 51,-36l86 -194c41,-84 142,-144 222,-191 37,-22 70,-41 86,-57 11,-17 17,-28 24,-39 39,-63 78,-125 104,-199l3 -10 261 -89 17 41c143,316 223,666 223,1035 0,690 -280,1315 -732,1768 -453,452 -1078,732 -1768,732 -690,0 -1315,-280 -1768,-732 -452,-453 -732,-1078 -732,-1768 0,-690 280,-1315 732,-1768 453,-452 1078,-732 1768,-732zm1959 1053c-72,-98 -152,-189 -237,-275 -441,-441 -1050,-713 -1722,-713 -672,0 -1281,272 -1722,713 -441,441 -713,1050 -713,1722 0,672 272,1281 713,1722 441,441 1050,713 1722,713 672,0 1281,-272 1722,-713 441,-441 713,-1050 713,-1722 0,-361 -78,-704 -219,-1012l-180 62c-27,74 -65,135 -104,197l-27 44c-26,26 -67,49 -99,68 -75,44 -168,99 -204,170l-87 199 -3 3c-38,46 -69,59 -98,54 -28,-5 -47,-27 -66,-50l-2 -3 -1 -4c-14,-40 -19,-78 -18,-114 2,-36 9,-69 19,-102l1 -4 2 -3c24,-34 43,-69 57,-106 14,-37 24,-76 32,-115l0 -2 1 -2c3,-11 -8,-20 -31,-29 -33,-12 -87,-20 -152,-24 -21,1 -42,4 -63,6 -2,6 -4,12 -6,17 23,10 40,13 56,12 21,-1 43,-9 74,-20l7 -3 7 2c31,9 55,21 69,40 15,22 16,50 -6,86l-4 6 -7 3c-27,12 -60,17 -93,21 8,6 17,12 27,21l1 2 2 2c14,19 21,39 20,58 0,10 -3,20 -7,29 -5,9 -12,17 -22,24 -19,14 -48,22 -89,21l-3 0 -2 0c-20,-5 -39,-10 -58,-15l1 1c13,19 20,42 18,64 -1,15 -7,28 -16,40 -10,11 -24,19 -42,23 -26,5 -62,-1 -108,-24l-7 -3c-96,-38 -194,-76 -216,-145l-2 -5 22 -174c-76,21 -145,42 -200,60l-54 16 -3 0c-28,3 -62,8 -95,14 -66,10 -132,21 -168,13l-3 -1 -2 -1c-44,-22 -74,-42 -86,-63 -18,-29 -9,-55 31,-79l3 -3 4 0c97,-21 198,-49 304,-89 106,-40 218,-92 337,-158 45,-37 95,-74 154,-110 58,-35 145,-81 209,-101 78,-22 154,-45 227,-68 72,-24 141,-49 207,-74l2 -1c69,-20 133,-44 191,-71 35,-17 64,-31 92,-47zm-765 817c27,-11 58,-15 89,-19 27,-4 54,-8 75,-15 7,-14 7,-23 3,-28 -5,-8 -18,-14 -35,-19 -31,11 -55,19 -81,20 -23,1 -46,-3 -76,-15 -9,21 -17,41 -14,66 14,5 27,8 39,10zm-336 -67l-23 182c20,45 104,79 187,111 27,11 60,30 89,24 7,-1 12,-4 15,-7 3,-4 5,-8 5,-14 1,-9 -2,-20 -8,-30 -27,-24 -52,-31 -77,-38 -31,-9 -62,-18 -98,-50l-13 -12 7 -15c20,-47 35,-123 47,-183l-131 32zm197 -47c-5,30 -14,60 -24,90 -8,29 -17,58 -22,86 17,13 43,25 76,36 40,14 89,27 141,39 28,1 47,-4 58,-12 3,-2 6,-5 7,-8 2,-2 2,-5 2,-8 0,-8 -3,-18 -10,-28 -31,-27 -53,-30 -79,-33 -23,-2 -47,-5 -80,-20l-11 -5 -3 -11c-10,-50 4,-82 20,-118l8 -17c-12,2 -22,3 -33,3 -10,1 -20,1 -31,3l-6 1 -13 2z"/>
  <path class="fil1 str0" d="M2626 1366c-12,-28 -10,-20 -35,-43 -17,-16 -23,-21 -39,-34 -26,-21 -53,-42 -84,-62 -180,-129 -527,-230 -796,-229 -482,3 -1098,322 -1225,834 -38,157 -43,313 -18,475 17,107 84,326 159,371 3,21 -5,-4 5,15 32,67 382,385 366,647 -8,127 -123,414 -177,543 -55,128 -40,147 -104,141 6,-125 85,-279 136,-421 57,-155 107,-274 31,-443 -125,-276 -381,-436 -466,-718 -95,-315 -24,-685 122,-909 80,-122 165,-210 268,-283 373,-266 800,-414 1273,-275 402,118 744,309 860,718 -9,2 -18,5 -27,8 -14,4 -28,8 -42,11 -6,-24 -15,-50 -27,-76 -27,-65 -125,-248 -180,-270zm302 580c-15,142 -65,223 127,463 41,51 100,76 142,133 54,74 23,161 -31,201 -70,51 -92,40 -160,112 11,50 37,54 43,118 9,81 -24,77 -53,114 34,125 -37,110 -70,191 -32,81 20,160 24,237 12,184 -156,232 -315,210 -487,-69 -507,-151 -562,155 -14,82 -14,196 -90,198 -35,-61 51,-363 88,-424 44,-72 99,-65 200,-59 165,10 573,145 599,-39 11,-73 -25,-159 -25,-239 -1,-130 71,-109 91,-181 -34,-49 -68,-6 -77,-84 43,-30 82,-26 121,-56 -3,-67 -102,-108 7,-216 53,-52 137,-92 165,-155 -22,-67 -152,-174 -210,-247 -130,-164 -104,-284 -92,-422 24,-2 51,-6 78,-10z"/>
  <g>
  </g>
  <g style="clip-path:url(#id0)">
   <g>
    <path class="fil1" d="M-62 7804l-4 -181c297,1 159,17 421,-36l1312 -2c155,-2 1085,-20 1207,5 69,13 206,52 307,35 49,-8 -5,7 49,-12 67,-23 26,3 72,-39l-323 5c41,-29 836,-292 1158,-461 185,-98 352,-198 518,-302 293,-183 552,-392 798,-621 199,-186 486,-521 668,-758 1326,-1730 1516,-4122 462,-6067 -659,-1216 -1948,-2443 -3728,-2798 -1334,-265 -2769,-17 -3886,727 -1687,1124 -2904,3139 -2398,5639 321,1584 1471,3027 2887,3673 1747,797 3637,589 5055,-453 78,-57 154,-114 228,-171 198,-152 465,-397 623,-600 120,-154 244,-289 363,-464 1763,-2591 844,-5887 -1662,-7237 -1795,-968 -3746,-709 -5220,481 -72,58 -140,119 -216,182 -420,343 -802,916 -1063,1416 -624,1189 -635,2765 -56,4030 319,697 876,1387 1491,1813 340,236 626,409 1059,579 1443,566 3152,251 4341,-733l513 -512c235,-258 412,-521 590,-838 181,-323 351,-807 435,-1230 208,-1044 13,-1942 -386,-2786 -340,-717 -952,-1323 -1558,-1717 -732,-476 -1578,-701 -2597,-620 -1621,129 -3104,1382 -3547,3001 -267,977 -160,1954 233,2799 1044,2247 3889,3017 5842,1482 84,-66 138,-122 216,-183 97,-77 120,-142 208,-216 266,-224 516,-640 673,-957 635,-1285 406,-2816 -365,-3855 -381,-513 -1048,-1099 -1920,-1336 -1117,-303 -2275,-26 -3125,661 -62,51 -175,144 -213,186 -349,390 -628,728 -834,1247 -350,882 -296,1915 94,2728 343,717 910,1271 1650,1621 826,390 1814,364 2621,-17 1568,-738 2388,-2703 1453,-4369 -891,-1587 -2837,-2061 -4346,-927 -945,711 -1462,2285 -762,3533 1257,2241 4274,1646 4801,-486 478,-1934 -1389,-3621 -3167,-2851 -1724,747 -1815,3188 -67,3973 1287,577 2804,-470 2682,-1881 -75,-873 -776,-1623 -1618,-1652 -410,-14 -920,126 -1197,424l-190 211c-180,282 -316,543 -327,915 -29,975 856,1708 1734,1476 417,-111 747,-396 885,-762 168,-446 69,-991 -194,-1250 -324,-320 -711,-498 -1181,-317 -982,378 -720,1853 271,1735 377,-45 793,-526 490,-953 -395,-557 -1029,35 -680,302 202,33 82,-33 222,-69 79,219 -288,297 -389,11 -79,-223 67,-451 270,-525 467,-170 890,348 706,840 -256,683 -1212,632 -1521,-23 -455,-961 687,-1816 1539,-1330 1053,600 741,2248 -524,2456 -243,40 -491,18 -711,-66 -622,-238 -1050,-852 -1021,-1551 38,-912 847,-1651 1772,-1614 1467,58 2250,1846 1411,2988 -254,345 -533,596 -936,758 -1889,758 -3639,-1513 -2529,-3256 745,-1171 2292,-1491 3424,-639 330,248 569,561 759,942 213,429 297,903 224,1439 -125,923 -674,1585 -1417,1996 -1261,698 -2795,76 -3495,-986 -511,-776 -614,-1773 -215,-2715 739,-1746 2911,-2291 4376,-1276 1445,1002 1831,2897 842,4434 -1008,1568 -3286,1998 -4852,650 -518,-445 -1070,-1164 -1200,-2191 -177,-1403 430,-2534 1353,-3269 1208,-962 2856,-999 4116,-200 1263,801 2316,2630 1436,4752 -330,795 -902,1351 -1583,1792 -703,454 -1773,684 -2720,485 -1643,-344 -3019,-1726 -3231,-3547 -159,-1373 335,-2536 1187,-3398 364,-368 747,-666 1227,-887 1473,-675 3204,-469 4463,600 464,394 821,846 1124,1403 189,348 351,845 424,1289 311,1900 -628,3645 -2108,4564 -3368,2094 -7658,-957 -6860,-5049 221,-1134 947,-2201 1820,-2846 76,-57 161,-119 248,-175 1867,-1214 4219,-1046 5878,443 305,273 567,566 797,903 292,430 547,899 699,1439 1114,3947 -2573,7524 -6335,6393 -1652,-497 -2911,-1740 -3486,-3251 -748,-1968 -196,-4007 840,-5284 1127,-1390 2780,-2223 4612,-2069 972,81 1798,346 2511,818 283,187 596,382 836,633l323 326c779,880 1346,1880 1489,3195 110,1019 -41,2094 -424,2935 -227,497 -617,1196 -987,1546 -141,133 -263,309 -413,436 -439,371 -959,763 -1516,1020 -102,46 -538,202 -586,257l3 2 15 201c651,-227 1240,-507 1760,-924l495 -428c85,-82 148,-126 234,-215 1652,-1731 2150,-4258 1153,-6572 -160,-371 -365,-683 -578,-1004 -37,-56 -58,-90 -104,-147 -140,-172 -273,-350 -409,-492 -1158,-1203 -2748,-1942 -4487,-1817 -1082,78 -1893,387 -2690,886 -1529,955 -2620,2719 -2645,4675 -15,1199 289,2075 766,2936 884,1593 2643,2680 4471,2753 1352,55 2687,-400 3649,-1263 407,-366 771,-758 1074,-1228 1123,-1739 1143,-3933 27,-5710 -463,-737 -1112,-1344 -1853,-1766 -2150,-1224 -4913,-682 -6420,1285 -254,332 -490,685 -686,1148 -801,1887 -340,4136 1057,5472l227 223c625,504 1255,891 2065,1085 1452,349 3060,-42 4131,-1006l658 -691c980,-1152 1328,-3132 682,-4660 -203,-479 -548,-1099 -886,-1397 -297,-262 -290,-350 -723,-649 -1253,-866 -2771,-1103 -4205,-522 -443,180 -824,422 -1138,675 -50,40 -73,66 -120,104 -292,234 -528,546 -753,848 -519,698 -854,1799 -754,2906 47,531 202,1024 405,1446 1202,2505 4388,3261 6484,1421 333,-293 565,-596 815,-986 701,-1094 762,-2534 255,-3708 -773,-1791 -2814,-2837 -4664,-2229 -693,228 -931,436 -1422,813 -91,71 -141,154 -221,229 -173,162 -283,305 -417,509 -514,784 -806,1819 -531,2949 619,2544 3504,3609 5527,2144 173,-125 322,-283 469,-429 38,-38 81,-68 118,-107l195 -256c37,-52 63,-86 103,-147 661,-996 753,-2467 84,-3602 -59,-100 -116,-184 -181,-271 -43,-58 -62,-87 -96,-130 -39,-51 -68,-69 -109,-115 -1833,-2076 -4993,-1040 -5508,1340 -120,555 -106,1116 66,1641 125,382 301,744 554,1029 667,751 1659,1242 2722,1050 679,-123 1326,-470 1721,-982l195 -256c69,-97 124,-196 176,-302 490,-1008 363,-2023 -187,-2864 -508,-778 -1537,-1243 -2438,-1132 -503,62 -955,261 -1270,513 -738,590 -1181,1577 -927,2603 60,241 154,463 264,642 652,1055 1962,1539 3092,903 376,-211 705,-546 901,-924 233,-452 340,-965 189,-1515 -67,-244 -149,-447 -265,-642 -87,-148 -191,-248 -297,-379 -56,-70 -49,-54 -117,-107 -1334,-1053 -3107,-216 -3212,1282 -98,1397 1279,2310 2415,1780 260,-122 356,-241 522,-400 347,-330 473,-953 350,-1412 -247,-920 -1311,-1476 -2212,-789 -811,618 -480,2098 616,2130 498,14 946,-357 1011,-812 126,-886 -955,-1361 -1363,-685 -134,222 -158,481 21,688 133,153 391,282 610,98 74,-62 154,-152 128,-307 -38,-221 -187,-128 -278,-181 97,-223 465,13 358,349 -39,124 -122,196 -222,253 -116,65 -254,77 -388,31 -835,-287 -287,-1588 610,-1299 257,83 407,231 518,426 568,1010 -821,2037 -1727,1242 -781,-685 -458,-2011 615,-2291 1338,-349 2381,1287 1556,2464 -768,1095 -2330,920 -2985,-214 -842,-1456 510,-3180 2154,-2890 1955,345 2549,3283 295,4304 -871,394 -2136,54 -2692,-676 -129,-169 -268,-356 -370,-558 -359,-715 -320,-1655 46,-2325 761,-1397 2441,-1803 3767,-996 1667,1013 1889,3541 -28,4878 -1578,1100 -4067,242 -4576,-1929 -290,-1236 173,-2210 728,-2884 283,-344 670,-599 1067,-798 432,-217 986,-351 1537,-314 860,57 1661,396 2219,1027l226 250c284,377 483,667 648,1239 150,524 171,1145 49,1692 -700,3122 -4822,3919 -6617,1036 -1822,-2926 960,-6528 4164,-5783 677,157 1179,437 1680,849 1397,1147 1922,3302 1040,4993l-442 712 -346 379c-50,50 -52,61 -105,120 -234,257 -648,525 -958,684 -1424,728 -3101,568 -4336,-310 -193,-138 -342,-274 -507,-414 -446,-377 -922,-1199 -1118,-1718 -401,-1063 -321,-2180 76,-3197 85,-218 206,-421 318,-613 62,-105 126,-202 187,-290 204,-291 412,-497 657,-742 151,-152 349,-296 530,-416 758,-506 1809,-847 2901,-746 3452,318 5501,4456 3265,7546 -338,468 -737,846 -1206,1165 -3663,2493 -8622,-987 -7437,-5526 460,-1760 1994,-3298 3792,-3693 1705,-375 3302,75 4581,1184l477 472c311,293 717,995 914,1443 1517,3455 -1082,7449 -4718,7579 -2055,74 -3772,-893 -4889,-2515 -1420,-2062 -1210,-4993 433,-6891 41,-47 84,-81 124,-125 79,-87 142,-145 221,-229 45,-47 61,-78 105,-119 2118,-1963 5326,-2105 7565,-240 261,218 495,430 708,689 42,52 69,66 110,114 1410,1645 1770,3960 997,6023 -269,717 -629,1203 -1048,1764 -124,166 -537,571 -699,698 -267,210 -524,418 -823,595 -308,182 -939,527 -1312,594l18 228c681,-161 1995,-923 2428,-1398 78,-86 102,-102 178,-172 671,-622 1315,-1692 1599,-2618 477,-1554 345,-3300 -416,-4710 -188,-347 -333,-570 -540,-865 -203,-291 -369,-429 -480,-571l-551 -523c-437,-349 -736,-550 -1273,-814 -651,-320 -1405,-523 -2210,-576 -1952,-130 -3705,777 -4833,2093 -711,829 -1149,1670 -1382,2870 -346,1777 262,3445 1093,4578l235 290c182,233 183,191 331,370 91,111 647,550 761,635 386,286 894,548 1365,716 146,52 430,122 538,176 -553,67 -1546,-497 -1976,-817l-573 -473c-62,-67 -124,-111 -196,-178l-492 -559c-923,-1133 -1522,-2936 -1184,-4766 807,-4372 5860,-6487 9444,-3916 853,612 1471,1306 1995,2280 1264,2350 743,5273 -860,7076 -123,139 -203,251 -345,381 -177,161 -350,336 -558,489 -87,64 -128,98 -212,162 -394,297 -1327,830 -1905,939l17 47 580 0c72,-51 629,-291 877,-441 625,-381 1148,-813 1649,-1340l449 -578c772,-1115 1309,-2438 1220,-4194 -44,-859 -219,-1480 -508,-2196 -125,-310 -303,-626 -458,-876 -259,-417 -302,-445 -568,-785 -305,-390 -991,-997 -1410,-1259 -275,-172 -534,-330 -862,-477 -154,-70 -312,-134 -473,-195 -119,-45 -413,-123 -490,-169l-3214 0c-119,71 -333,109 -475,160 -922,331 -1699,861 -2386,1540 -157,155 -467,517 -607,721 -312,456 -488,733 -724,1285 -907,2121 -488,4567 814,6212l620 706c61,62 104,81 173,151 124,128 400,330 555,442 408,293 1188,742 1775,861z"/>
    <path class="fil1" d="M-107 8114c3,-2 27,-34 30,-42l14 -141c0,-5 -2,-25 -5,-33 -861,-198 -1659,-744 -2303,-1265 -734,-595 -1430,-1624 -1774,-2512 -804,-2071 -445,-4538 939,-6210 169,-204 593,-693 780,-843 684,-548 932,-767 1807,-1150 132,-58 382,-125 478,-192l-614 0 -839 450c-734,423 -1547,1213 -2021,1921 -752,1122 -1248,2410 -1160,4133 42,813 224,1477 500,2154 121,297 298,609 446,862 447,764 1205,1533 1922,2026 395,272 1251,734 1800,842z"/>
    <path class="fil1" d="M4225 8236l511 0c89,-85 274,-159 393,-234 772,-488 930,-669 1559,-1282 126,-124 611,-764 698,-905 722,-1171 1201,-2538 1125,-4013 -88,-1718 -650,-2899 -1454,-3975 -252,-337 -546,-624 -846,-904l-437 -361c-318,-239 -605,-437 -968,-622 -132,-68 -310,-123 -431,-214l-627 0c146,102 952,257 2085,1158 1441,1147 2349,2945 2458,4859 99,1741 -587,3392 -1472,4475 -64,78 -68,106 -144,181 -69,67 -91,105 -152,175 -956,1099 -2139,1532 -2298,1662z"/>
    <path class="fil1" d="M-788 8236l686 0c-26,-17 -693,-241 -940,-363 -526,-261 -1155,-639 -1593,-1042l-655 -668c-53,-72 -92,-106 -146,-178 -809,-1082 -1305,-2097 -1434,-3575 -154,-1769 466,-3537 1408,-4690l240 -284c285,-329 363,-392 662,-662 715,-645 1508,-986 1577,-1048l-488 0c-73,67 -300,189 -390,246 -521,323 -653,492 -1063,830 -113,92 -208,222 -322,328l-823 1080c-1444,2223 -1359,5262 141,7471 284,418 661,856 1020,1206 62,60 106,77 178,146 381,362 1032,776 1524,1012 111,53 332,126 418,191z"/>
    <path class="fil1" d="M4925 8236l434 0 865 -647c578,-472 1161,-1180 1553,-1826 1437,-2376 1374,-5405 -163,-7675 -81,-120 -165,-247 -249,-353 -256,-318 -403,-533 -712,-814l-160 -165c-66,-59 -94,-66 -164,-135 -60,-58 -92,-77 -163,-136 -109,-94 -227,-183 -348,-274 -122,-92 -248,-167 -373,-249 -102,-68 -289,-162 -374,-236l-484 0c103,91 276,147 408,223 933,535 1679,1176 2314,2073 1681,2374 1698,5277 198,7767 -132,218 -489,689 -661,892l-481 493c-454,387 -531,477 -1051,816 -96,62 -310,172 -389,246z"/>
    <path class="fil1" d="M-2176 8236l431 0c-15,-14 -21,-19 -47,-37 -13,-9 -36,-24 -46,-31l-1134 -806c-87,-80 -102,-85 -177,-147 -58,-47 -87,-100 -145,-154 -222,-206 -307,-335 -440,-459 -87,-83 -187,-228 -268,-333 -1770,-2306 -2018,-5409 -573,-8001 178,-320 766,-1183 1020,-1410 156,-140 126,-154 296,-304l661 -560c79,-59 295,-202 350,-268l-378 0 -485 396c-176,135 -723,718 -870,904 -370,466 -525,664 -848,1258 -598,1101 -969,2461 -898,3928 84,1727 735,3163 1659,4330 216,273 421,511 723,777 326,286 426,398 820,675 88,63 281,170 349,242z"/>
    <path class="fil1" d="M-1532 8236l513 0c-110,-86 -296,-148 -431,-218 -1434,-742 -2670,-2091 -3270,-3654 -246,-643 -418,-1317 -466,-2078 -109,-1741 422,-3234 1265,-4458 94,-136 172,-234 266,-359 199,-265 364,-416 590,-660 232,-249 749,-636 1034,-835 91,-63 309,-178 374,-248l-417 0c-53,61 -251,182 -343,252 -69,52 -116,79 -173,126 -400,328 -614,518 -949,898 -166,190 -233,236 -422,503 -89,126 -162,224 -248,354 -1178,1787 -1595,4286 -767,6441 280,731 750,1575 1231,2135 60,70 97,101 153,171 354,442 841,819 1293,1152 131,96 245,163 378,243 95,58 329,177 389,235z"/>
    <path class="fil1" d="M5540 8236l386 0c18,-21 659,-518 797,-663l573 -600c55,-61 72,-100 133,-168 92,-101 181,-223 261,-341 887,-1306 1502,-2750 1446,-4586 -62,-2027 -887,-3775 -2131,-5070l-626 -571c-108,-91 -221,-176 -338,-259 -92,-65 -291,-190 -346,-252l-418 0 710 486c566,444 1071,921 1506,1516 1921,2623 1904,6101 -63,8721l-568 657c-209,212 -329,372 -626,597 -120,91 -218,179 -334,263l-362 270z"/>
    <path class="fil1" d="M-2730 8236l390 0c-181,-169 -477,-335 -668,-503 -110,-96 -206,-172 -312,-262 -57,-48 -89,-99 -148,-152l-429 -445c-52,-64 -96,-96 -144,-155 -992,-1236 -1688,-2692 -1774,-4508 -80,-1691 445,-3423 1320,-4651l778 -974c289,-318 876,-791 938,-860l-349 0 -595 548c-2457,2441 -3102,6452 -1225,9529 148,243 411,650 581,848 130,151 236,323 415,484 109,97 170,184 275,301 47,52 89,81 146,128 62,51 92,94 154,145l647 527z"/>
    <path class="fil1" d="M6082 8236l360 0c44,-73 71,-79 161,-150 61,-48 100,-94 160,-139l299 -274c306,-285 807,-895 1052,-1276 1610,-2499 1816,-5585 293,-8219 -456,-789 -939,-1356 -1547,-1932l-313 -262c-108,-93 -255,-182 -314,-258l-379 0 87 77c607,424 979,788 1476,1339 1007,1118 1800,3072 1804,4737 5,1569 -329,2679 -950,3840 -355,662 -999,1489 -1552,1977l-637 540z"/>
    <path class="fil1" d="M6594 8236l335 0 564 -548c329,-355 738,-866 995,-1282 1550,-2505 1722,-5536 320,-8163 -399,-747 -572,-923 -1042,-1515 -49,-62 -78,-111 -137,-164 -116,-105 -209,-192 -285,-288 -127,-161 -546,-481 -589,-550l-354 0c91,97 215,183 325,276 603,507 918,887 1371,1503 1683,2295 1926,5635 553,8176 -140,259 -285,508 -425,730l-623 831 -1008 994z"/>
    <path class="fil1" d="M-3262 8236l361 0c-73,-84 -219,-177 -315,-260 -113,-98 -223,-173 -311,-263 -115,-117 -192,-158 -290,-284 -91,-116 -173,-173 -285,-289 -260,-267 -784,-1030 -967,-1339 -1334,-2259 -1431,-5127 -248,-7466 382,-758 856,-1430 1431,-2027l606 -582 -333 0c-118,155 -360,325 -561,561l-521 630c-286,355 -655,985 -864,1421 -1136,2381 -1057,5121 215,7418 256,462 491,786 795,1187 52,67 89,93 139,161l397 428c66,65 77,88 139,160l612 544z"/>
    <path class="fil1" d="M-3737 8236l339 0c-46,-72 -483,-414 -580,-537l-783 -893c-204,-262 -521,-759 -679,-1051 -1273,-2336 -1329,-4976 -224,-7401 239,-525 565,-1040 855,-1428 206,-275 538,-683 780,-921 71,-71 236,-199 282,-279l-318 0c-67,126 -527,549 -680,756 -45,62 -70,90 -120,155 -247,319 -458,638 -674,1007 -410,697 -766,1609 -936,2442 -579,2840 290,5656 2184,7609l554 541z"/>
    <path class="fil1" d="M7067 8236l321 0c88,-96 173,-188 262,-281 225,-237 309,-315 518,-582 1227,-1569 1905,-3305 1892,-5469 -8,-1285 -382,-2649 -892,-3628 -206,-395 -392,-701 -629,-1054 -180,-267 -313,-403 -492,-634l-825 -862 -334 0c71,83 609,551 848,829l501 624c77,99 165,224 238,339 791,1250 1367,2690 1369,4361 1,1424 -274,2635 -827,3752 -254,512 -563,1036 -871,1412 -88,108 -158,210 -239,312 -42,52 -90,91 -133,142 -332,393 -473,472 -707,739z"/>
    <path class="fil1" d="M7527 8236l309 0c51,-105 110,-139 210,-225l301 -349c311,-364 760,-1056 984,-1474 777,-1449 816,-2380 933,-2627l0 -3028c-65,-131 -131,-572 -181,-761 -67,-250 -146,-469 -227,-708 -340,-998 -833,-1719 -1413,-2508 -138,-188 -731,-791 -752,-830l-319 0c53,76 92,87 159,151 55,51 74,94 126,148 471,495 338,332 772,878 309,389 596,869 854,1380 1182,2346 1161,4948 91,7337 -379,845 -961,1670 -1576,2336 -80,87 -217,197 -271,280z"/>
    <path class="fil1" d="M-6837 206l0 3280c116,233 179,1244 1014,2694 359,623 492,748 853,1227l310 366c90,100 408,390 444,463l325 0c-67,-76 -68,-80 -146,-144 -62,-49 -85,-74 -137,-137 -206,-252 -478,-483 -790,-883 -2318,-2976 -2402,-6963 -247,-10132 248,-365 363,-479 619,-783l388 -431 -303 0c-65,118 -120,120 -207,227l-383 467c-304,390 -591,827 -841,1292 -284,529 -573,1223 -737,1835 -38,141 -117,562 -162,659z"/>
    <path class="fil1" d="M-6837 4683l423 1017c372,779 627,1128 1096,1765 55,75 102,124 156,196l512 575 317 0 -809 -903c-239,-304 -480,-640 -694,-1010 -219,-380 -387,-702 -570,-1140 -88,-209 -156,-401 -234,-627 -48,-140 -147,-569 -197,-655l0 782z"/>
    <path class="fil1" d="M10264 75l0 -793 -409 -1009c-272,-598 -823,-1519 -1237,-1975l-497 -572 -306 0c24,46 339,384 397,434 99,85 113,140 195,230 96,104 101,128 191,234l358 495c401,623 574,909 883,1656 144,349 389,1241 425,1300z"/>
    <path class="fil1" d="M7964 8236l297 0c37,-72 84,-123 144,-181l463 -563c365,-474 749,-1138 1007,-1706l389 -973 0 -826c-48,93 -129,482 -173,620 -65,205 -136,416 -215,619 -152,389 -332,773 -524,1113 -176,313 -589,967 -811,1220l-378 447c-69,60 -160,154 -199,230z"/>
    <path class="fil1" d="M-6837 -1006l0 772c106,-178 333,-1619 1505,-3183l509 -643c94,-102 138,-106 196,-214l-300 0 -299 355c-225,265 -619,862 -791,1141 -145,236 -327,580 -448,859 -67,156 -130,298 -194,460 -56,141 -103,334 -178,453z"/>
    <path class="fil1" d="M-6837 5576c79,98 289,582 374,737 378,681 456,747 876,1332l497 591 296 0c-105,-152 -386,-433 -449,-517 -50,-69 -94,-110 -145,-180 -92,-128 -187,-240 -281,-370 -686,-942 -1144,-2139 -1168,-2171l0 578z"/>
    <path class="fil1" d="M10264 -1037l0 -590c-75,-89 -537,-1258 -1347,-2210l-354 -437 -302 0c97,143 252,279 318,356 55,64 75,98 145,180 538,634 1000,1454 1350,2241 48,107 135,381 190,460z"/>
    <path class="fil1" d="M8394 8236l293 0c133,-186 300,-367 445,-571 73,-104 151,-202 219,-308 200,-307 407,-614 576,-954l337 -678 0 -600c-78,127 -119,297 -183,443 -457,1051 -952,1822 -1687,2668z"/>
    <path class="fil1" d="M-6837 -1897l0 584c178,-272 401,-1213 1380,-2464l396 -497 -287 0c-41,78 -55,71 -111,137 -210,248 -517,708 -697,983 -210,320 -658,1229 -681,1257z"/>
    <path class="fil1" d="M-6837 6275c1,1 552,948 791,1262l456 570c30,37 67,92 89,129l295 0c-69,-98 -130,-172 -225,-269l-333 -419c-337,-450 -628,-901 -889,-1419 -57,-112 -110,-254 -184,-344l0 490z"/>
    <path class="fil1" d="M10264 -1842l0 -499c-71,-80 -228,-403 -299,-522 -154,-259 -466,-737 -647,-959l-354 -452 -290 0c45,88 120,146 225,278 79,98 150,173 225,275 316,427 527,731 794,1213 79,143 265,570 346,666z"/>
    <path class="fil1" d="M-6837 -2606l0 495c67,-83 236,-452 300,-574 281,-538 620,-999 973,-1460 63,-82 60,-37 98,-129l-282 0c-383,552 -612,803 -955,1442l-122 210c-3,4 -8,11 -12,16z"/>
    <path class="fil1" d="M8806 8236l281 0 1177 -1797 0 -499c-63,80 -251,492 -316,613 -270,503 -588,973 -939,1418 -77,97 -141,161 -203,265z"/>
    <path class="fil1" d="M-6837 6936l220 330c76,118 145,220 219,332l466 620c2,-4 8,12 11,18l286 0 -1202 -1737 0 437z"/>
    <path class="fil1" d="M10264 533l0 -458c-36,-59 -281,-951 -425,-1300 -309,-747 -482,-1033 -883,-1656l-358 -495c-90,-106 -95,-130 -191,-234 -82,-90 -96,-145 -195,-230 -58,-50 -373,-388 -397,-434l-124 0c21,39 614,642 752,830 580,789 1073,1510 1413,2508 81,239 160,458 227,708 50,189 116,630 181,761z"/>
    <path class="fil1" d="M-6837 -234l0 440c45,-97 124,-518 162,-659 164,-612 453,-1306 737,-1835 250,-465 537,-902 841,-1292l383 -467c87,-107 142,-109 207,-227l-120 0c-58,108 -102,112 -196,214l-509 643c-1172,1564 -1399,3005 -1505,3183z"/>
    <path class="fil1" d="M10264 -718l0 -319c-55,-79 -142,-353 -190,-460 -350,-787 -812,-1607 -1350,-2241 -70,-82 -90,-116 -145,-180 -66,-77 -221,-213 -318,-356l-140 0 497 572c414,456 965,1377 1237,1975l409 1009z"/>
    <path class="fil1" d="M10264 -2565l0 -440c-65,-69 -151,-235 -213,-332l-440 -638c-44,-56 -80,-98 -121,-154 -36,-50 -81,-91 -106,-145l-282 0c366,486 555,707 889,1254 59,97 210,393 273,455z"/>
    <path class="fil1" d="M9217 8236l279 0c60,-106 126,-182 202,-286l566 -852 0 -441c0,0 -615,998 -773,1205l-274 374z"/>
    <path class="fil1" d="M-6837 -1313l0 307c75,-119 122,-312 178,-453 64,-162 127,-304 194,-460 121,-279 303,-623 448,-859 172,-279 566,-876 791,-1141l299 -355 -134 0 -396 497c-979,1251 -1202,2192 -1380,2464z"/>
    <path class="fil1" d="M-6837 -3259l0 439 460 -745c87,-129 152,-223 247,-354 93,-128 168,-223 258,-355l-279 0c-30,71 -122,182 -174,254 -73,100 -113,153 -178,248 -83,121 -247,428 -334,513z"/>
    <path class="fil1" d="M10264 -1627l0 -215c-81,-96 -267,-523 -346,-666 -267,-482 -478,-786 -794,-1213 -75,-102 -146,-177 -225,-275 -105,-132 -180,-190 -225,-278l-111 0 354 437c810,952 1272,2121 1347,2210z"/>
    <path class="fil1" d="M-6837 7509l52 59c13,15 20,27 32,44l441 624 281 0 -806 -1134 0 407z"/>
    <path class="fil1" d="M-6837 -2111l0 214c23,-28 471,-937 681,-1257 180,-275 487,-735 697,-983 56,-66 70,-59 111,-137l-118 0c-38,92 -35,47 -98,129 -353,461 -692,922 -973,1460 -64,122 -233,491 -300,574z"/>
    <path class="fil1" d="M10264 -3175l0 -407c-43,-46 -75,-87 -120,-158 -46,-75 -73,-100 -124,-177 -41,-63 -72,-114 -122,-178 -30,-39 -43,-51 -67,-83l-63 -96 -273 0 586 828c43,65 55,78 89,139 42,76 39,84 94,132z"/>
    <path class="fil1" d="M10264 -2341l0 -224c-63,-62 -214,-358 -273,-455 -334,-547 -523,-768 -889,-1254l-138 0 354 452c181,222 493,700 647,959 71,119 228,442 299,522z"/>
    <path class="fil1" d="M9610 8236l272 0c39,-99 123,-183 189,-278 47,-68 130,-216 193,-273l0 -409c-77,74 -253,379 -318,474 -54,81 -107,156 -165,236 -47,63 -148,188 -171,250z"/>
    <path class="fil1" d="M-6837 -2820l0 214c4,-5 9,-12 12,-16l122 -210c343,-639 572,-890 955,-1442l-124 0c-90,132 -165,227 -258,355 -95,131 -160,225 -247,354l-460 745z"/>
    <path class="fil1" d="M-6837 -3838l0 406c54,-50 99,-132 144,-207 41,-67 101,-155 138,-213 101,-155 212,-281 293,-422l-269 0c-46,73 -94,133 -147,216 -50,80 -93,146 -159,220z"/>
    <path class="fil1" d="M10264 -3005l0 -170c-55,-48 -52,-56 -94,-132 -34,-61 -46,-74 -89,-139l-586 -828 -111 0c25,54 70,95 106,145 41,56 77,98 121,154l440 638c62,97 148,263 213,332z"/>
    <path class="fil1" d="M-6837 -3432l0 173c87,-85 251,-392 334,-513 65,-95 105,-148 178,-248 52,-72 144,-183 174,-254l-111 0c-81,141 -192,267 -293,422 -37,58 -97,146 -138,213 -45,75 -90,157 -144,207z"/>
    <path class="fil1" d="M-6837 8073l119 163 275 0c-50,-111 -128,-187 -198,-281 -65,-89 -120,-184 -196,-259l0 377z"/>
    <path class="fil1" d="M10264 -3770l0 -378c-56,-61 -58,-41 -91,-126l-275 0c15,33 338,481 366,504z"/>
    <path class="fil1" d="M10264 -3582l0 -188c-28,-23 -351,-471 -366,-504l-130 0 63 96c24,32 37,44 67,83 50,64 81,115 122,178 51,77 78,102 124,177 45,71 77,112 120,158z"/>
    <path class="fil1" d="M10007 8236l257 0 0 -368 -28 29c-3,4 -9,10 -12,15 -4,4 -8,10 -12,15l-95 130c-42,62 -87,114 -110,179z"/>
    <path class="fil1" d="M-6837 -4020l0 182c66,-74 109,-140 159,-220 53,-83 101,-143 147,-216l-122 0c-68,104 -103,171 -184,254z"/>
    <path class="fil1" d="M-6837 -4020c81,-83 116,-150 184,-254l-184 0 0 254z"/>
    <path class="fil1" d="M10264 -4148l0 -126 -91 0c33,85 35,65 91,126z"/>
   </g>
  </g>
  <path class="fil2" d="M2649 1502c-5,47 41,110 70,141 30,33 35,60 38,88 -9,2 -19,4 -28,6l-10 2 -9 6c-27,16 -44,35 -51,55 -10,24 -6,48 9,73l0 0c9,14 22,28 40,41 16,11 36,22 60,34l6 3 7 2c13,3 28,4 45,4 34,185 -80,272 -108,354 -19,54 -22,83 -116,111 -51,15 -254,20 -309,-2 -118,-46 -107,42 -118,72 -31,86 -101,59 -130,146 -37,113 -107,128 -231,144 -27,-5 -32,-6 -51,-14 -49,-4 -151,-27 -190,-18 -1,131 -50,111 -91,205 -14,33 -22,32 -43,56 -32,6 -63,23 -102,36 -252,81 -544,-137 -592,-338 -82,2 -89,-20 -158,-121 -23,-36 -55,-121 -65,-176 -14,-78 2,-164 -10,-229 -27,-156 -18,-183 45,-277 34,-52 -18,-205 196,-419 71,-72 157,-184 238,-224 50,-25 63,3 99,-20 82,-51 78,-87 192,-96 76,-6 14,-31 135,-45 44,-5 55,-19 89,-24 56,-9 54,11 94,16 47,5 43,-21 85,-20 25,1 70,13 105,14 113,4 193,-10 302,39 36,16 50,39 75,46 34,9 58,5 94,18 72,27 90,74 129,94 24,41 49,-6 98,26 34,23 87,87 110,119 22,32 23,49 51,72z"/>
 </g>
</svg>
